<svg width="1396.3999999999999px" height="176px" xmlns="http://www.w3.org/2000/svg" viewBox="-448.19999999999993 -13 1396.3999999999999 176" style="background: rgb(147, 219, 233);" preserveAspectRatio="xMidYMid"><defs><filter id="editing-raise" x="-100%" y="-100%" width="300%" height="300%"><feFlood flood-color="#ffffff" result="flood-surface"></feFlood><feFlood flood-color="#000000" result="flood-extrude"></feFlood><feMorphology operator="erode" in="SourceAlpha" radius="1" result="erode"></feMorphology><feConvolveMatrix in="erode" result="shadow" order="11,8" divisor="1" kernelMatrix="0 0 0 1 1 1 1 1 0 0 0 0 0 1 0 0 0 0 0 1 0 0 0 0 1 0 0 0 0 0 1 0 0 0 0 1 0 0 0 0 0 1 0 0 0 0 1 0 0 0 0 0 1 0 0 0 0 0 1 0 0 0 1 0 0 0 0 0 0 1 1 0 1 1 0 0 0 0 0 0 0 0 1 0 0 0 0 0"></feConvolveMatrix><feOffset dx="0" dy="4" in="shadow" result="offset"></feOffset><feGaussianBlur in="offset" stdDeviation="0.2" result="blur"></feGaussianBlur><feComposite operator="in" in="flood-extrude" in2="blur" result="extrude"></feComposite><feMorphology operator="erode" in="SourceAlpha" radius="1" result="erode2"></feMorphology><feConvolveMatrix in="erode2" result="out" order="4,4" divisor="1" kernelMatrix="0 1 1 0 1 0 0 1 1 0 0 1 0 1 1 0 "></feConvolveMatrix><feComposite operator="in" in="flood-surface" in2="out" result="text"></feComposite><feMerge><feMergeNode in="extrude"></feMergeNode><feMergeNode in="text"></feMergeNode></feMerge></filter></defs><g filter="url(#editing-raise)"><g transform="translate(-246.16086769104004, 111.39000129699707)"><path d="M48.69-31.17L48.69-31.17L32.34-13.14L32.34-13.14Q32.41-12.26 32.41-10.58L32.41-10.58L32.41-10.58Q32.41-6.35 29.38-2.81L29.38-2.81L29.38-2.81Q26.35 0.73 23.29 0.73L23.29 0.73L23.29 0.73Q21.46 0.73 20.48-0.80L20.48-0.80L20.48-0.80Q19.49-2.34 19.49-4.16L19.49-4.16L19.49-4.16Q19.49-7.45 22.92-11.83L22.92-11.83L22.92-11.83Q23.21-13.87 23.21-15.04L23.21-15.04L23.21-15.04Q23.21-19.42 20.73-28.62L20.73-28.62L20.73-28.62Q12.48-9.13 6.20-3.21L6.20-3.21L6.20-3.21Q3.21-0.36 1.13 0.58L1.13 0.58L1.13 0.58Q-0.95 1.53-3.32 1.53L-3.32 1.53L-3.32 1.53Q-5.69 1.53-7.23-0.88L-7.23-0.88L-7.23-0.88Q-8.76-3.28-8.76-6.28L-8.76-6.28L-8.76-6.28Q-8.76-7.37-6.50-8.91L-6.50-8.91L-6.50-8.91Q-4.09-7.74-1.86-7.74L-1.86-7.74L-1.86-7.74Q0.36-7.74 3.25-10.58L3.25-10.58L3.25-10.58Q6.13-13.43 9.20-18.10L9.20-18.10L9.20-18.10Q14.31-25.91 18.98-34.82L18.98-34.82L18.98-34.82Q17.67-39.71 17.67-43.43L17.67-43.43L17.67-43.43Q17.67-47.16 20.07-49.20L20.07-49.20L20.07-49.20Q20.59-49.64 22.37-50.15L22.37-50.15L22.37-50.15Q24.16-50.66 25.73-50.66L25.73-50.66L25.73-50.66Q27.30-50.66 27.89-50.00L27.89-50.00L27.89-50.00Q28.91-48.76 28.91-46.21L28.91-46.21L28.91-46.21Q28.91-40.81 26.06-37.38L26.06-37.38L26.06-37.38Q26.13-37.16 27.30-34.60L27.30-34.60L27.30-34.60Q30.59-27.74 31.75-19.27L31.75-19.27L31.75-19.27Q35.11-23.07 42.16-30.48L42.16-30.48L42.16-30.48Q49.20-37.89 50.66-39.57L50.66-39.57L50.66-39.57Q51.83-44.02 54.20-47.19L54.20-47.19L54.20-47.19Q56.57-50.37 58.69-50.37L58.69-50.37L58.69-50.37Q60.81-50.37 62.67-48.98L62.67-48.98L62.67-48.98Q64.53-47.60 64.53-45.84L64.53-45.84L64.53-45.84Q64.53-44.31 61.83-41.46L61.83-41.46L61.83-41.46Q61.10-40.73 60.77-40.37L60.77-40.37L60.77-40.37Q60.44-40.00 59.60-39.20L59.60-39.20L59.60-39.20Q58.76-38.40 58.62-38.25L58.62-38.25L58.62-38.25Q56.36-33.29 55.01-25.62L55.01-25.62L55.01-25.62Q53.65-17.96 53.65-13.07L53.65-13.07L53.65-13.07Q53.65-5.40 58.11-5.40L58.11-5.40L58.11-5.40Q59.64-5.40 61.39-5.99L61.39-5.99L61.39-5.99Q61.90-5.55 61.90-4.89L61.90-4.89L61.90-4.89Q61.90-2.99 59.02-0.69L59.02-0.69L59.02-0.69Q56.14 1.61 52.27 1.61L52.27 1.61L52.27 1.61Q48.40 1.61 45.77-1.02L45.77-1.02L45.77-1.02Q43.14-3.65 43.14-8.98L43.14-8.98L43.14-8.98Q43.14-14.67 45.92-23.07L45.92-23.07L45.92-23.07Q46.79-25.77 48.69-31.17ZM92.05-28.62L92.05-28.62L92.05-28.62Q91.32-29.78 90.08-30.51L90.08-30.51L90.08-30.51Q88.84-31.24 88.04-31.39L88.04-31.39L87.16-31.54L87.16-31.54Q81.91-28.32 77.49-21.35L77.49-21.35L77.49-21.35Q73.07-14.38 73.07-8.61L73.07-8.61L73.07-8.61Q73.07-7.37 73.69-6.68L73.69-6.68L73.69-6.68Q74.31-5.99 75.12-5.99L75.12-5.99L75.12-5.99Q77.23-5.99 79.86-7.88L79.86-7.88L79.86-7.88Q82.49-9.78 84.10-11.68L84.10-11.68L85.70-13.58L85.70-13.58Q87.53-20.29 92.05-28.62ZM85.04-8.54L85.04-8.54L85.04-8.54Q84.97-8.47 84.02-7.37L84.02-7.37L84.02-7.37Q83.07-6.28 81.80-5.00L81.80-5.00L81.80-5.00Q80.52-3.72 78.84-2.34L78.84-2.34L78.84-2.34Q74.97 0.73 71.25 0.73L71.25 0.73L71.25 0.73Q67.52 0.73 65.66-1.53L65.66-1.53L65.66-1.53Q63.80-3.80 63.80-8.25L63.80-8.25L63.80-8.25Q63.80-12.70 67.45-19.42L67.45-19.42L67.45-19.42Q71.10-26.13 76.72-31.10L76.72-31.10L76.72-31.10Q82.34-36.06 87.23-36.06L87.23-36.06L87.23-36.06Q89.42-36.06 91.36-34.97L91.36-34.97L91.36-34.97Q93.29-33.87 94.17-32.41L94.17-32.41L94.17-32.41Q98.77-39.64 101.76-39.64L101.76-39.64L101.76-39.64Q103.22-39.64 104.24-38.07L104.24-38.07L104.24-38.07Q105.27-36.50 105.27-34.42L105.27-34.42L105.27-34.42Q105.27-32.34 101.98-26.83L101.98-26.83L101.98-26.83Q98.70-21.32 93.88-15.48L93.88-15.48L93.88-15.48Q93.29-13.07 93.29-9.27L93.29-9.27L93.29-9.27Q93.29-4.16 96.07-4.16L96.07-4.16L96.07-4.16Q97.89-4.16 100.74-5.91L100.74-5.91L101.69-6.50L101.69-6.50Q101.91-6.50 102.46-5.62L102.46-5.62L102.46-5.62Q103.00-4.75 103.00-4.27L103.00-4.27L103.00-4.27Q103.00-3.80 101.54-2.63L101.54-2.63L101.54-2.63Q100.08-1.46 97.35-0.33L97.35-0.33L97.35-0.33Q94.61 0.80 91.83 0.80L91.83 0.80L91.83 0.80Q85.04 0.80 85.04-8.54ZM131.76-29.27L131.76-29.27L131.76-29.27Q130.74-28.76 127.60-24.42L127.60-24.42L127.60-24.42Q124.46-20.07 122.79-16.94L122.79-16.94L122.79-16.94Q121.11-9.64 118.15-4.53L118.15-4.53L118.15-4.53Q115.19 0.58 113.33 0.58L113.33 0.58L113.33 0.58Q111.47 0.58 109.46-0.11L109.46-0.11L109.46-0.11Q107.46-0.80 107.46-2.19L107.46-2.19L107.46-2.19Q107.46-4.67 109.39-8.47L109.39-8.47L109.39-8.47Q111.32-12.26 113.30-14.82L113.30-14.82L115.19-17.37L115.19-17.37Q116.65-22.34 116.65-28.25L116.65-28.25L116.65-28.25Q116.65-30.88 115.56-30.88L115.56-30.88L115.56-30.88Q114.76-30.88 113.59-30.26L113.59-30.26L113.59-30.26Q112.42-29.64 112.05-29.64L112.05-29.64L112.05-29.64Q111.69-29.64 111.25-30.51L111.25-30.51L111.25-30.51Q110.81-31.39 110.81-31.86L110.81-31.86L110.81-31.86Q110.81-32.34 112.46-33.47L112.46-33.47L112.46-33.47Q114.10-34.60 116.87-35.70L116.87-35.70L116.87-35.70Q119.65-36.79 122.06-36.79L122.06-36.79L122.06-36.79Q123.15-36.79 123.92-34.75L123.92-34.75L123.92-34.75Q124.68-32.70 124.68-30.40L124.68-30.40L124.68-30.40Q124.68-28.10 124.61-26.97L124.61-26.97L124.61-26.97Q124.54-25.84 124.54-25.40L124.54-25.40L124.54-25.40Q127.24-30.15 130.71-33.43L130.71-33.43L130.71-33.43Q134.17-36.72 137.31-36.72L137.31-36.72L137.31-36.72Q140.45-36.72 142.02-35.04L142.02-35.04L142.02-35.04Q143.59-33.36 143.59-30.37L143.59-30.37L143.59-30.37Q143.59-26.28 139.50-22.34L139.50-22.34L139.50-22.34Q135.41-18.40 132.42-18.40L132.42-18.40L132.42-18.40Q130.96-18.40 130.96-19.34L130.96-19.34L130.96-19.34Q130.96-19.56 132.09-21.90L132.09-21.90L132.09-21.90Q133.22-24.24 133.22-26.75L133.22-26.75L133.22-26.75Q133.22-29.27 131.76-29.27ZM167.83-10.88L167.83-10.88L167.83-10.88Q168.12-10.88 168.59-10.22L168.59-10.22L168.59-10.22Q169.07-9.56 169.07-9.23L169.07-9.23L169.07-9.23Q169.07-8.91 168.19-7.88L168.19-7.88L168.19-7.88Q167.32-6.86 165.64-5.40L165.64-5.40L165.64-5.40Q163.96-3.94 161.91-2.63L161.91-2.63L161.91-2.63Q156.88 0.73 151.91 0.73L151.91 0.73L151.91 0.73Q146.95 0.73 144.36-2.12L144.36-2.12L144.36-2.12Q141.77-4.96 141.77-10.00L141.77-10.00L141.77-10.00Q141.77-15.04 145.27-21.32L145.27-21.32L145.27-21.32Q148.77-27.59 154.80-32.05L154.80-32.05L154.80-32.05Q160.82-36.50 167.17-36.50L167.17-36.50L167.17-36.50Q174.76-36.50 174.76-29.42L174.76-29.42L174.76-29.42Q174.76-25.91 172.13-23.72L172.13-23.72L172.13-23.72Q169.51-21.54 166.80-21.54L166.80-21.54L166.80-21.54Q165.56-21.54 165.56-22.19L165.56-22.19L165.56-22.19Q165.78-25.48 165.78-25.70L165.78-25.70L165.78-25.70Q165.78-30.88 161.84-30.88L161.84-30.88L161.84-30.88Q160.53-30.88 158.92-30.37L158.92-30.37L158.92-30.37Q157.83-29.49 156.22-27.56L156.22-27.56L156.22-27.56Q154.61-25.62 153.52-23.76L153.52-23.76L153.52-23.76Q152.42-21.90 151.51-18.98L151.51-18.98L151.51-18.98Q150.60-16.06 150.60-12.99L150.60-12.99L150.60-12.99Q150.60-9.93 152.17-7.99L152.17-7.99L152.17-7.99Q153.74-6.06 156.37-6.06L156.37-6.06L156.37-6.06Q158.99-6.06 161.59-7.26L161.59-7.26L161.59-7.26Q164.18-8.47 165.86-9.67L165.86-9.67L165.86-9.67Q167.53-10.88 167.83-10.88ZM203.74-28.62L203.74-28.62L203.74-28.62Q203.01-29.78 201.77-30.51L201.77-30.51L201.77-30.51Q200.53-31.24 199.73-31.39L199.73-31.39L198.85-31.54L198.85-31.54Q193.60-28.32 189.18-21.35L189.18-21.35L189.18-21.35Q184.76-14.38 184.76-8.61L184.76-8.61L184.76-8.61Q184.76-7.37 185.38-6.68L185.38-6.68L185.38-6.68Q186.00-5.99 186.81-5.99L186.81-5.99L186.81-5.99Q188.92-5.99 191.55-7.88L191.55-7.88L191.55-7.88Q194.18-9.78 195.79-11.68L195.79-11.68L197.39-13.58L197.39-13.58Q199.22-20.29 203.74-28.62ZM196.73-8.54L196.73-8.54L196.73-8.54Q196.66-8.47 195.71-7.37L195.71-7.37L195.71-7.37Q194.76-6.28 193.49-5.00L193.49-5.00L193.49-5.00Q192.21-3.72 190.53-2.34L190.53-2.34L190.53-2.34Q186.66 0.73 182.94 0.73L182.94 0.73L182.94 0.73Q179.22 0.73 177.35-1.53L177.35-1.53L177.35-1.53Q175.49-3.80 175.49-8.25L175.49-8.25L175.49-8.25Q175.49-12.70 179.14-19.42L179.14-19.42L179.14-19.42Q182.79-26.13 188.41-31.10L188.41-31.10L188.41-31.10Q194.03-36.06 198.92-36.06L198.92-36.06L198.92-36.06Q201.11-36.06 203.05-34.97L203.05-34.97L203.05-34.97Q204.98-33.87 205.86-32.41L205.86-32.41L205.86-32.41Q210.46-39.64 213.45-39.64L213.45-39.64L213.45-39.64Q214.91-39.64 215.93-38.07L215.93-38.07L215.93-38.07Q216.96-36.50 216.96-34.42L216.96-34.42L216.96-34.42Q216.96-32.34 213.67-26.83L213.67-26.83L213.67-26.83Q210.39-21.32 205.57-15.48L205.57-15.48L205.57-15.48Q204.98-13.07 204.98-9.27L204.98-9.27L204.98-9.27Q204.98-4.16 207.76-4.16L207.76-4.16L207.76-4.16Q209.58-4.16 212.43-5.91L212.43-5.91L213.38-6.50L213.38-6.50Q213.60-6.50 214.15-5.62L214.15-5.62L214.15-5.62Q214.69-4.75 214.69-4.27L214.69-4.27L214.69-4.27Q214.69-3.80 213.23-2.63L213.23-2.63L213.23-2.63Q211.77-1.46 209.04-0.33L209.04-0.33L209.04-0.33Q206.30 0.80 203.52 0.80L203.52 0.80L203.52 0.80Q196.73 0.80 196.73-8.54ZM246.52 0.73L246.52 0.73L246.52 0.73Q239.66 0.73 239.66-8.83L239.66-8.83L239.66-8.83Q239.37-8.47 238.89-7.81L238.89-7.81L238.89-7.81Q238.42-7.15 236.88-5.51L236.88-5.51L236.88-5.51Q235.35-3.87 233.75-2.59L233.75-2.59L233.75-2.59Q232.14-1.31 229.88-0.29L229.88-0.29L229.88-0.29Q227.61 0.73 225.50 0.73L225.50 0.73L225.50 0.73Q222.14 0.73 220.28-1.53L220.28-1.53L220.28-1.53Q218.42-3.80 218.42-8.21L218.42-8.21L218.42-8.21Q218.42-12.63 222.07-19.38L222.07-19.38L222.07-19.38Q225.72-26.13 231.34-31.10L231.34-31.10L231.34-31.10Q236.96-36.06 241.85-36.06L241.85-36.06L241.85-36.06Q245.43-36.06 247.69-33.58L247.69-33.58L247.69-33.58Q255.50-51.10 259.51-51.10L259.51-51.10L259.51-51.10Q261.34-51.10 263.27-49.86L263.27-49.86L263.27-49.86Q265.21-48.62 265.21-45.92L265.21-45.92L265.21-45.92Q265.21-43.22 260.50-35.33L260.50-35.33L260.50-35.33Q255.79-27.45 249.44-18.76L249.44-18.76L249.44-18.76Q247.98-15.26 247.98-9.75L247.98-9.75L247.98-9.75Q247.98-4.23 250.75-4.23L250.75-4.23L250.75-4.23Q252.58-4.23 255.43-5.99L255.43-5.99L256.38-6.57L256.38-6.57Q256.60-6.57 257.14-5.69L257.14-5.69L257.14-5.69Q257.69-4.82 257.69-4.34L257.69-4.34L257.69-4.34Q257.69-3.87 256.23-2.70L256.23-2.70L256.23-2.70Q254.77-1.53 252.03-0.40L252.03-0.40L252.03-0.40Q249.29 0.73 246.52 0.73ZM245.94-29.49L245.94-29.49L245.94-29.49Q244.33-31.24 241.78-31.54L241.78-31.54L241.78-31.54Q236.52-28.32 232.10-21.32L232.10-21.32L232.10-21.32Q227.69-14.31 227.69-8.54L227.69-8.54L227.69-8.54Q227.69-7.30 228.31-6.64L228.31-6.64L228.31-6.64Q228.93-5.99 229.73-5.99L229.73-5.99L229.73-5.99Q231.85-5.99 234.48-7.88L234.48-7.88L234.48-7.88Q237.10-9.78 238.71-11.68L238.71-11.68L240.32-13.58L240.32-13.58Q241.85-19.78 245.94-29.49ZM275.28-5.77L275.28-5.77L275.28-5.77Q279.59-5.77 283.35-11.75L283.35-11.75L283.35-11.75Q287.11-17.74 287.11-22.99L287.11-22.99L287.11-22.99Q287.11-30.44 280.98-30.44L280.98-30.44L280.98-30.44Q279.95-30.44 279.08-30.22L279.08-30.22L279.08-30.22Q278.20-30.00 278.06-29.82L278.06-29.82L278.06-29.82Q277.91-29.64 277.44-29.09L277.44-29.09L277.44-29.09Q276.96-28.54 275.79-26.72L275.79-26.72L275.79-26.72Q274.63-24.89 273.68-23.07L273.68-23.07L273.68-23.07Q271.27-18.03 271.27-13.91L271.27-13.91L271.27-13.91Q271.27-9.78 272.36-7.77L272.36-7.77L272.36-7.77Q273.46-5.77 275.28-5.77ZM270.32 0.66L270.32 0.66L270.32 0.66Q262.22 0.66 262.22-7.59L262.22-7.59L262.22-7.59Q262.22-12.04 264.26-17.15L264.26-17.15L264.26-17.15Q266.30-22.26 269.55-26.57L269.55-26.57L269.55-26.57Q272.80-30.88 277.33-33.76L277.33-33.76L277.33-33.76Q281.85-36.65 286.56-36.65L286.56-36.65L286.56-36.65Q291.27-36.65 293.50-34.78L293.50-34.78L293.50-34.78Q295.72-32.92 295.72-28.76L295.72-28.76L295.72-28.76Q295.72-21.83 291.63-14.86L291.63-14.86L291.63-14.86Q287.55-7.88 281.60-3.61L281.60-3.61L281.60-3.61Q275.65 0.66 270.32 0.66ZM322.44-29.27L322.44-29.27L322.44-29.27Q321.42-28.76 318.28-24.42L318.28-24.42L318.28-24.42Q315.14-20.07 313.46-16.94L313.46-16.94L313.46-16.94Q311.78-9.64 308.83-4.53L308.83-4.53L308.83-4.53Q305.87 0.58 304.01 0.58L304.01 0.58L304.01 0.58Q302.15 0.58 300.14-0.11L300.14-0.11L300.14-0.11Q298.13-0.80 298.13-2.19L298.13-2.19L298.13-2.19Q298.13-4.67 300.07-8.47L300.07-8.47L300.07-8.47Q302.00-12.26 303.97-14.82L303.97-14.82L305.87-17.37L305.87-17.37Q307.33-22.34 307.33-28.25L307.33-28.25L307.33-28.25Q307.33-30.88 306.24-30.88L306.24-30.88L306.24-30.88Q305.43-30.88 304.26-30.26L304.26-30.26L304.26-30.26Q303.10-29.64 302.73-29.64L302.73-29.64L302.73-29.64Q302.37-29.64 301.93-30.51L301.93-30.51L301.93-30.51Q301.49-31.39 301.49-31.86L301.49-31.86L301.49-31.86Q301.49-32.34 303.13-33.47L303.13-33.47L303.13-33.47Q304.78-34.60 307.55-35.70L307.55-35.70L307.55-35.70Q310.32-36.79 312.73-36.79L312.73-36.79L312.73-36.79Q313.83-36.79 314.59-34.75L314.59-34.75L314.59-34.75Q315.36-32.70 315.36-30.40L315.36-30.40L315.36-30.40Q315.36-28.10 315.29-26.97L315.29-26.97L315.29-26.97Q315.21-25.84 315.21-25.40L315.21-25.40L315.21-25.40Q317.92-30.15 321.38-33.43L321.38-33.43L321.38-33.43Q324.85-36.72 327.99-36.72L327.99-36.72L327.99-36.72Q331.13-36.72 332.70-35.04L332.70-35.04L332.70-35.04Q334.27-33.36 334.27-30.37L334.27-30.37L334.27-30.37Q334.27-26.28 330.18-22.34L330.18-22.34L330.18-22.34Q326.09-18.40 323.10-18.40L323.10-18.40L323.10-18.40Q321.64-18.40 321.64-19.34L321.64-19.34L321.64-19.34Q321.64-19.56 322.77-21.90L322.77-21.90L322.77-21.90Q323.90-24.24 323.90-26.75L323.90-26.75L323.90-26.75Q323.90-29.27 322.44-29.27ZM349.60-30.37L349.60-30.37L349.60-30.37Q347.85-28.83 345.47-25.40L345.47-25.40L345.47-25.40Q343.10-21.97 342.08-18.98L342.08-18.98L342.08-18.98Q346.17-19.34 349.23-20.37L349.23-20.37L349.23-20.37Q352.30-21.39 353.69-22.63L353.69-22.63L353.69-22.63Q356.46-25.04 356.46-26.97L356.46-26.97L356.46-26.97Q356.46-28.91 355.36-30.00L355.36-30.00L355.36-30.00Q354.27-31.10 352.63-31.10L352.63-31.10L352.63-31.10Q350.98-31.10 349.60-30.37ZM341.27-15.48L341.27-15.48L341.27-15.48Q341.13-13.87 341.13-13.58L341.13-13.58L341.13-13.58Q341.13-10.37 342.52-8.21L342.52-8.21L342.52-8.21Q343.90-6.06 346.82-6.06L346.82-6.06L346.82-6.06Q352.44-6.06 356.82-9.71L356.82-9.71L356.82-9.71Q356.90-9.78 357.26-9.78L357.26-9.78L357.26-9.78Q357.63-9.78 358.21-9.20L358.21-9.20L358.21-9.20Q358.80-8.61 358.80-7.96L358.80-7.96L358.80-7.96Q358.80-7.30 356.61-5.26L356.61-5.26L356.61-5.26Q354.42-3.21 350.33-1.24L350.33-1.24L350.33-1.24Q346.24 0.73 342.08 0.73L342.08 0.73L342.08 0.73Q337.92 0.73 335.18-2.04L335.18-2.04L335.18-2.04Q332.44-4.82 332.44-9.34L332.44-9.34L332.44-9.34Q332.44-13.87 334.63-18.61L334.63-18.61L334.63-18.61Q336.82-23.36 340.29-27.30L340.29-27.30L340.29-27.30Q343.76-31.24 348.50-33.87L348.50-33.87L348.50-33.87Q353.25-36.50 357.19-36.50L357.19-36.50L357.19-36.50Q361.13-36.50 363.28-34.78L363.28-34.78L363.28-34.78Q365.44-33.07 365.44-30.00L365.44-30.00L365.44-30.00Q365.44-26.06 362.88-22.78L362.88-22.78L362.88-22.78Q357.48-16.06 341.27-15.48ZM390.19-23.87L390.19-23.87L390.19-23.87Q389.16-23.87 389.78-25.33L389.78-25.33L389.78-25.33Q390.40-26.79 390.40-28.25L390.40-28.25L390.40-28.25Q390.40-29.71 389.05-30.66L389.05-30.66L389.05-30.66Q387.70-31.61 385.99-31.61L385.99-31.61L385.99-31.61Q384.27-31.61 382.37-31.17L382.37-31.17L382.37-31.17Q381.28-29.35 381.28-27.34L381.28-27.34L381.28-27.34Q381.28-25.33 383.14-23.18L383.14-23.18L383.14-23.18Q385.00-21.02 387.23-19.53L387.23-19.53L387.23-19.53Q389.46-18.03 391.32-15.95L391.32-15.95L391.32-15.95Q393.18-13.87 393.18-11.83L393.18-11.83L393.18-11.83Q393.18-5.99 388.21-2.66L388.21-2.66L388.21-2.66Q383.25 0.66 377.45 0.66L377.45 0.66L377.45 0.66Q371.64 0.66 368.36-1.97L368.36-1.97L368.36-1.97Q365.07-4.60 365.07-7.48L365.07-7.48L365.07-7.48Q365.07-10.37 367.08-12.08L367.08-12.08L367.08-12.08Q369.09-13.80 373.10-13.80L373.10-13.80L373.10-13.80Q373.69-13.80 373.69-13.21L373.69-13.21L373.69-13.21Q373.69-12.99 373.25-11.53L373.25-11.53L373.25-11.53Q372.81-10.07 372.81-8.91L372.81-8.91L372.81-8.91Q372.81-6.42 374.45-5.07L374.45-5.07L374.45-5.07Q376.10-3.72 378.40-3.72L378.40-3.72L378.40-3.72Q380.69-3.72 382.34-5.04L382.34-5.04L382.34-5.04Q383.98-6.35 383.98-8.29L383.98-8.29L383.98-8.29Q383.98-10.22 382.85-11.50L382.85-11.50L382.85-11.50Q381.72-12.77 380.07-13.91L380.07-13.91L380.07-13.91Q378.43-15.04 376.75-16.35L376.75-16.35L376.75-16.35Q372.88-19.34 372.88-24.02L372.88-24.02L372.88-24.02Q372.88-29.86 377.78-33.25L377.78-33.25L377.78-33.25Q382.67-36.65 388.94-36.65L388.94-36.65L388.94-36.65Q392.96-36.65 395.44-35.11L395.44-35.11L395.44-35.11Q397.92-33.58 397.92-30.66L397.92-30.66L397.92-30.66Q397.92-28.76 397.12-27.38L397.12-27.38L397.12-27.38Q396.32-25.99 395.30-25.33L395.30-25.33L395.30-25.33Q394.27-24.67 392.96-24.31L392.96-24.31L392.96-24.31Q391.35-23.87 390.19-23.87ZM444.13-43.07L444.13-43.07L444.13-43.07Q444.13-41.03 441.18-33.80L441.18-33.80L441.18-33.80Q438.22-26.57 435.23-18.94L435.23-18.94L435.23-18.94Q432.23-11.31 432.23-8.18L432.23-8.18L432.23-8.18Q432.23-4.75 436.18-4.75L436.18-4.75L436.18-4.75Q439.17-4.75 442.60-6.64L442.60-6.64L442.60-6.64Q446.03-8.54 449.06-11.79L449.06-11.79L449.06-11.79Q452.09-15.04 454.06-19.89L454.06-19.89L454.06-19.89Q456.03-24.75 456.03-30.73L456.03-30.73L456.03-30.73Q456.03-36.72 453.40-39.97L453.40-39.97L453.40-39.97Q450.77-43.22 446.25-43.22L446.25-43.22L446.25-43.22Q445.45-43.22 444.13-43.07ZM428.58-48.25L428.58-48.25L428.58-48.25Q434.50-47.60 437.45-47.60L437.45-47.60L437.45-47.60Q440.41-47.60 444.97-47.92L444.97-47.92L444.97-47.92Q449.53-48.25 453.33-48.25L453.33-48.25L453.33-48.25Q459.53-48.25 463.37-44.20L463.37-44.20L463.37-44.20Q467.20-40.15 467.20-32.92L467.20-32.92L467.20-32.92Q467.20-23.80 461.43-15.80L461.43-15.80L461.43-15.80Q455.67-7.81 447.20-3.39L447.20-3.39L447.20-3.39Q438.73 1.02 430.19 1.02L430.19 1.02L430.19 1.02Q421.65 1.02 421.65-5.33L421.65-5.33L421.65-5.33Q421.65-8.18 424.50-15.40L424.50-15.40L424.50-15.40Q427.34-22.63 430.19-30.29L430.19-30.29L430.19-30.29Q433.04-37.96 433.04-41.83L433.04-41.83L433.04-41.83Q433.04-42.78 432.31-43.33L432.31-43.33L432.31-43.33Q431.58-43.87 430.74-44.02L430.74-44.02L430.74-44.02Q429.90-44.16 428.07-44.38L428.07-44.38L428.07-44.38Q427.42-44.53 427.42-45.52L427.42-45.52L427.42-45.52Q427.42-46.50 427.85-47.38L427.85-47.38L427.85-47.38Q428.29-48.25 428.58-48.25ZM484.72-30.37L484.72-30.37L484.72-30.37Q482.97-28.83 480.60-25.40L480.60-25.40L480.60-25.40Q478.22-21.97 477.20-18.98L477.20-18.98L477.20-18.98Q481.29-19.34 484.36-20.37L484.36-20.37L484.36-20.37Q487.42-21.39 488.81-22.63L488.81-22.63L488.81-22.63Q491.58-25.04 491.58-26.97L491.58-26.97L491.58-26.97Q491.58-28.91 490.49-30.00L490.49-30.00L490.49-30.00Q489.39-31.10 487.75-31.10L487.75-31.10L487.75-31.10Q486.11-31.10 484.72-30.37ZM476.40-15.48L476.40-15.48L476.40-15.48Q476.25-13.87 476.25-13.58L476.25-13.58L476.25-13.58Q476.25-10.37 477.64-8.21L477.64-8.21L477.64-8.21Q479.03-6.06 481.95-6.06L481.95-6.06L481.95-6.06Q487.57-6.06 491.95-9.71L491.95-9.71L491.95-9.71Q492.02-9.78 492.38-9.78L492.38-9.78L492.38-9.78Q492.75-9.78 493.33-9.20L493.33-9.20L493.33-9.20Q493.92-8.61 493.92-7.96L493.92-7.96L493.92-7.96Q493.92-7.30 491.73-5.26L491.73-5.26L491.73-5.26Q489.54-3.21 485.45-1.24L485.45-1.24L485.45-1.24Q481.36 0.73 477.20 0.73L477.20 0.73L477.20 0.73Q473.04 0.73 470.30-2.04L470.30-2.04L470.30-2.04Q467.56-4.82 467.56-9.34L467.56-9.34L467.56-9.34Q467.56-13.87 469.75-18.61L469.75-18.61L469.75-18.61Q471.94-23.36 475.41-27.30L475.41-27.30L475.41-27.30Q478.88-31.24 483.63-33.87L483.63-33.87L483.63-33.87Q488.37-36.50 492.31-36.50L492.31-36.50L492.31-36.50Q496.25-36.50 498.41-34.78L498.41-34.78L498.41-34.78Q500.56-33.07 500.56-30.00L500.56-30.00L500.56-30.00Q500.56-26.06 498.01-22.78L498.01-22.78L498.01-22.78Q492.60-16.06 476.40-15.48ZM528.81-30.29L528.81-30.29L528.81-30.29Q524.14-28.32 519.69-23.29L519.69-23.29L519.69-23.29Q517.42-15.69 513.77-8.18L513.77-8.18L513.77-8.18Q512.97-6.42 512.83-6.06L512.83-6.06L512.83-6.06Q515.09-4.53 517.13-4.53L517.13-4.53L517.13-4.53Q522.02-4.53 526.55-11.46L526.55-11.46L526.55-11.46Q531.08-18.40 531.08-25.62L531.08-25.62L531.08-25.62Q531.08-30.29 528.81-30.29ZM510.93-1.97L510.93-1.97L510.93-1.97Q510.20-0.51 508.41 3.36L508.41 3.36L508.41 3.36Q506.62 7.23 505.74 9.02L505.74 9.02L505.74 9.02Q504.87 10.80 503.48 13.29L503.48 13.29L503.48 13.29Q500.93 17.81 498.95 17.81L498.95 17.81L498.95 17.81Q497.64 17.81 495.63 16.61L495.63 16.61L495.63 16.61Q493.63 15.40 493.63 14.09L493.63 14.09L493.63 14.09Q493.63 11.31 499.39 0.36L499.39 0.36L499.39 0.36Q505.16-10.58 509.76-17.30L509.76-17.30L509.76-17.30Q511.88-23.65 511.88-28.03L511.88-28.03L511.88-28.03Q511.88-31.17 509.76-31.17L509.76-31.17L509.76-31.17Q508.66-31.17 506.99-30.37L506.99-30.37L506.99-30.37Q505.31-29.56 505.09-29.49L505.09-29.49L505.09-29.49Q504.65-29.56 504.21-30.55L504.21-30.55L504.21-30.55Q503.77-31.54 503.77-32.27L503.77-32.27L503.77-32.27Q511.51-37.52 516.18-37.52L516.18-37.52L516.18-37.52Q518.30-37.52 519.61-36.06L519.61-36.06L519.61-36.06Q520.93-34.60 520.93-31.54L520.93-31.54L520.93-31.54Q520.93-30.81 520.64-28.32L520.64-28.32L520.64-28.32Q528.52-36.86 534.21-36.86L534.21-36.86L534.21-36.86Q541.22-36.86 541.22-28.18L541.22-28.18L541.22-28.18Q541.22-22.78 538.16-16.28L538.16-16.28L538.16-16.28Q535.09-9.78 529.40-4.89L529.40-4.89L529.40-4.89Q523.70 0 517.42 0L517.42 0L517.42 0Q513.85 0 510.93-1.97ZM557.21-5.77L557.21-5.77L557.21-5.77Q561.52-5.77 565.28-11.75L565.28-11.75L565.28-11.75Q569.03-17.74 569.03-22.99L569.03-22.99L569.03-22.99Q569.03-30.44 562.90-30.44L562.90-30.44L562.90-30.44Q561.88-30.44 561.00-30.22L561.00-30.22L561.00-30.22Q560.13-30.00 559.98-29.82L559.98-29.82L559.98-29.82Q559.84-29.64 559.36-29.09L559.36-29.09L559.36-29.09Q558.89-28.54 557.72-26.72L557.72-26.72L557.72-26.72Q556.55-24.89 555.60-23.07L555.60-23.07L555.60-23.07Q553.19-18.03 553.19-13.91L553.19-13.91L553.19-13.91Q553.19-9.78 554.29-7.77L554.29-7.77L554.29-7.77Q555.38-5.77 557.21-5.77ZM552.25 0.66L552.25 0.66L552.25 0.66Q544.14 0.66 544.14-7.59L544.14-7.59L544.14-7.59Q544.14-12.04 546.19-17.15L546.19-17.15L546.19-17.15Q548.23-22.26 551.48-26.57L551.48-26.57L551.48-26.57Q554.73-30.88 559.25-33.76L559.25-33.76L559.25-33.76Q563.78-36.65 568.49-36.65L568.49-36.65L568.49-36.65Q573.20-36.65 575.42-34.78L575.42-34.78L575.42-34.78Q577.65-32.92 577.65-28.76L577.65-28.76L577.65-28.76Q577.65-21.83 573.56-14.86L573.56-14.86L573.56-14.86Q569.47-7.88 563.52-3.61L563.52-3.61L563.52-3.61Q557.57 0.66 552.25 0.66ZM604.37-29.27L604.37-29.27L604.37-29.27Q603.35-28.76 600.21-24.42L600.21-24.42L600.21-24.42Q597.07-20.07 595.39-16.94L595.39-16.94L595.39-16.94Q593.71-9.64 590.75-4.53L590.75-4.53L590.75-4.53Q587.80 0.58 585.93 0.58L585.93 0.58L585.93 0.58Q584.07 0.58 582.07-0.11L582.07-0.11L582.07-0.11Q580.06-0.80 580.06-2.19L580.06-2.19L580.06-2.19Q580.06-4.67 581.99-8.47L581.99-8.47L581.99-8.47Q583.93-12.26 585.90-14.82L585.90-14.82L587.80-17.37L587.80-17.37Q589.26-22.34 589.26-28.25L589.26-28.25L589.26-28.25Q589.26-30.88 588.16-30.88L588.16-30.88L588.16-30.88Q587.36-30.88 586.19-30.26L586.19-30.26L586.19-30.26Q585.02-29.64 584.66-29.64L584.66-29.64L584.66-29.64Q584.29-29.64 583.85-30.51L583.85-30.51L583.85-30.51Q583.42-31.39 583.42-31.86L583.42-31.86L583.42-31.86Q583.42-32.34 585.06-33.47L585.06-33.47L585.06-33.47Q586.70-34.60 589.48-35.70L589.48-35.70L589.48-35.70Q592.25-36.79 594.66-36.79L594.66-36.79L594.66-36.79Q595.75-36.79 596.52-34.75L596.52-34.75L596.52-34.75Q597.29-32.70 597.29-30.40L597.29-30.40L597.29-30.40Q597.29-28.10 597.21-26.97L597.21-26.97L597.21-26.97Q597.14-25.84 597.14-25.40L597.14-25.40L597.14-25.40Q599.84-30.15 603.31-33.43L603.31-33.43L603.31-33.43Q606.78-36.72 609.92-36.72L609.92-36.72L609.92-36.72Q613.05-36.72 614.62-35.04L614.62-35.04L614.62-35.04Q616.19-33.36 616.19-30.37L616.19-30.37L616.19-30.37Q616.19-26.28 612.11-22.34L612.11-22.34L612.11-22.34Q608.02-18.40 605.02-18.40L605.02-18.40L605.02-18.40Q603.56-18.40 603.56-19.34L603.56-19.34L603.56-19.34Q603.56-19.56 604.70-21.90L604.70-21.90L604.70-21.90Q605.83-24.24 605.83-26.75L605.83-26.75L605.83-26.75Q605.83-29.27 604.37-29.27ZM637.07-4.16L637.07-4.16L637.07-4.16Q634.88-1.90 631.27-0.44L631.27-0.44L631.27-0.44Q627.65 1.02 624.19 1.02L624.19 1.02L624.19 1.02Q620.72 1.02 618.49-0.80L618.49-0.80L618.49-0.80Q616.27-2.63 616.27-6.17L616.27-6.17L616.27-6.17Q616.27-9.71 618.60-15.95L618.60-15.95L618.60-15.95Q620.94-22.19 624.44-28.91L624.44-28.91L624.44-28.91Q622.84-29.27 621.45-29.27L621.45-29.27L621.45-29.27Q618.68-29.27 617.43-27.59L617.43-27.59L617.43-27.59Q615.83-29.27 615.83-31.10L615.83-31.10L615.83-31.10Q615.83-32.92 617.80-34.16L617.80-34.16L617.80-34.16Q619.77-35.41 622.54-35.41L622.54-35.41L622.54-35.41Q625.32-35.41 627.14-35.04L627.14-35.04L627.14-35.04Q629.04-38.98 629.41-44.02L629.41-44.02L629.41-44.02Q631.96-46.50 636.93-46.50L636.93-46.50L636.93-46.50Q638.24-46.50 639.01-45.73L639.01-45.73L639.01-45.73Q639.77-44.97 639.77-43.65L639.77-43.65L639.77-43.65Q639.77-40.08 634.74-33.80L634.74-33.80L634.74-33.80Q636.85-33.29 639.59-33.29L639.59-33.29L639.59-33.29Q642.33-33.29 645.10-34.31L645.10-34.31L645.10-34.31Q645.32-33.21 645.32-32.19L645.32-32.19L645.32-32.19Q645.32-26.06 637.58-26.06L637.58-26.06L637.58-26.06Q634.37-26.06 631.45-27.23L631.45-27.23L631.45-27.23Q626.27-13.43 626.27-7.96L626.27-7.96L626.27-7.96Q626.27-5.04 629.55-5.04L629.55-5.04L629.55-5.04Q631.23-5.04 633.09-5.73L633.09-5.73L633.09-5.73Q634.95-6.42 635.76-7.23L635.76-7.23L635.76-7.23Q637.22-6.72 637.22-5.18L637.22-5.18L637.22-5.18Q637.22-4.75 637.07-4.16ZM668.32-42.78L668.32-42.78L668.32-42.78Q666.86-42.05 663.13-42.05L663.13-42.05L663.13-42.05Q659.41-42.05 657.95-42.49L657.95-42.49L657.95-42.49Q658.53-44.60 658.53-46.43L658.53-46.43L658.53-46.43Q658.53-48.25 658.46-48.84L658.46-48.84L658.46-48.84Q659.26-50.08 663.06-51.21L663.06-51.21L663.06-51.21Q666.86-52.34 670.43-52.34L670.43-52.34L670.43-52.34Q670.87-52.34 670.87-50.73L670.87-50.73L670.87-50.73Q670.87-49.13 670.07-46.35L670.07-46.35L670.07-46.35Q669.26-43.58 668.32-42.78ZM661.31-5.84L661.31-5.84L661.31-5.84Q661.75-4.96 661.75-4.45L661.75-4.45L661.75-4.45Q661.75-3.94 660.25-2.77L660.25-2.77L660.25-2.77Q658.75-1.61 655.80-0.44L655.80-0.44L655.80-0.44Q652.84 0.73 649.70 0.73L649.70 0.73L649.70 0.73Q644.96 0.73 644.96-3.21L644.96-3.21L644.96-3.21Q644.96-6.79 647.22-12.30L647.22-12.30L647.22-12.30Q649.48-17.81 651.78-22.78L651.78-22.78L651.78-22.78Q654.08-27.74 654.08-30.00L654.08-30.00L654.08-30.00Q654.08-30.73 653.50-30.73L653.50-30.73L653.50-30.73Q652.69-30.73 651.20-30.04L651.20-30.04L651.20-30.04Q649.70-29.35 649.34-29.35L649.34-29.35L649.34-29.35Q648.97-29.35 648.50-30.33L648.50-30.33L648.50-30.33Q648.02-31.32 648.02-31.83L648.02-31.83L648.02-31.83Q648.02-32.19 650.14-33.25L650.14-33.25L650.14-33.25Q652.26-34.31 655.47-35.30L655.47-35.30L655.47-35.30Q658.68-36.28 660.47-36.28L660.47-36.28L660.47-36.28Q662.26-36.28 663.79-35.44L663.79-35.44L663.79-35.44Q665.32-34.60 665.32-33.40L665.32-33.40L665.32-33.40Q665.32-32.19 662.66-26.57L662.66-26.57L662.66-26.57Q659.99-20.95 657.29-14.60L657.29-14.60L657.29-14.60Q654.59-8.25 654.59-5.26L654.59-5.26L654.59-5.26Q654.59-4.38 655.32-4.38L655.32-4.38L655.32-4.38Q657.07-4.38 659.63-6.13L659.63-6.13L660.43-6.72L660.43-6.72Q660.87-6.72 661.31-5.84ZM696.06-32.34L696.06-32.34L696.06-32.34Q697.00-33.51 699.23-34.46L699.23-34.46L699.23-34.46Q701.46-35.41 703.32-35.41L703.32-35.41L703.32-35.41Q705.18-35.41 705.98-34.09L705.98-34.09L705.98-34.09Q706.79-32.78 706.79-31.17L706.79-31.17L706.79-31.17Q706.79-26.64 702.92-19.20L702.92-19.20L702.92-19.20Q699.05-11.75 692.62-5.55L692.62-5.55L692.62-5.55Q686.20 0.66 680.21 0.66L680.21 0.66L680.21 0.66Q676.56 0.66 674.45-2.01L674.45-2.01L674.45-2.01Q672.33-4.67 672.33-9.42L672.33-9.42L672.33-9.42Q672.33-18.03 680.21-27.81L680.21-27.81L680.21-27.81Q675.62-30.73 673.35-30.73L673.35-30.73L673.35-30.73Q671.97-30.73 671.71-28.73L671.71-28.73L671.71-28.73Q671.45-26.72 670.72-26.72L670.72-26.72L670.72-26.72Q669.63-26.72 669.05-27.01L669.05-27.01L669.05-27.01Q668.46-27.30 668.39-27.52L668.39-27.52L668.39-27.52Q668.32-27.74 668.32-28.80L668.32-28.80L668.32-28.80Q668.32-29.86 668.57-31.54L668.57-31.54L668.57-31.54Q668.83-33.21 670.25-35.11L670.25-35.11L670.25-35.11Q671.67-37.01 673.86-37.01L673.86-37.01L673.86-37.01Q676.05-37.01 678.54-36.28L678.54-36.28L678.54-36.28Q681.02-35.55 682.48-34.82L682.48-34.82L684.01-34.09L684.01-34.09Q686.49-35.77 687.70-35.77L687.70-35.77L687.70-35.77Q688.90-35.77 690.00-34.67L690.00-34.67L690.00-34.67Q691.09-33.58 691.13-32.08L691.13-32.08L691.13-32.08Q691.16-30.59 689.19-28.29L689.19-28.29L689.19-28.29Q687.22-25.99 684.81-25.99L684.81-25.99L684.81-25.99Q680.07-18.40 680.07-11.83L680.07-11.83L680.07-11.83Q680.07-10.00 681.05-8.43L681.05-8.43L681.05-8.43Q682.04-6.86 684.23-6.86L684.23-6.86L684.23-6.86Q688.76-6.86 692.66-13.32L692.66-13.32L692.66-13.32Q696.57-19.78 696.57-27.08L696.57-27.08L696.57-27.08Q696.57-29.64 696.06-32.34ZM719.85-5.77L719.85-5.77L719.85-5.77Q724.16-5.77 727.92-11.75L727.92-11.75L727.92-11.75Q731.68-17.74 731.68-22.99L731.68-22.99L731.68-22.99Q731.68-30.44 725.55-30.44L725.55-30.44L725.55-30.44Q724.53-30.44 723.65-30.22L723.65-30.22L723.65-30.22Q722.77-30.00 722.63-29.82L722.63-29.82L722.63-29.82Q722.48-29.64 722.01-29.09L722.01-29.09L722.01-29.09Q721.53-28.54 720.36-26.72L720.36-26.72L720.36-26.72Q719.20-24.89 718.25-23.07L718.25-23.07L718.25-23.07Q715.84-18.03 715.84-13.91L715.84-13.91L715.84-13.91Q715.84-9.78 716.93-7.77L716.93-7.77L716.93-7.77Q718.03-5.77 719.85-5.77ZM714.89 0.66L714.89 0.66L714.89 0.66Q706.79 0.66 706.79-7.59L706.79-7.59L706.79-7.59Q706.79-12.04 708.83-17.15L708.83-17.15L708.83-17.15Q710.87-22.26 714.12-26.57L714.12-26.57L714.12-26.57Q717.37-30.88 721.90-33.76L721.90-33.76L721.90-33.76Q726.42-36.65 731.13-36.65L731.13-36.65L731.13-36.65Q735.84-36.65 738.07-34.78L738.07-34.78L738.07-34.78Q740.29-32.92 740.29-28.76L740.29-28.76L740.29-28.76Q740.29-21.83 736.21-14.86L736.21-14.86L736.21-14.86Q732.12-7.88 726.17-3.61L726.17-3.61L726.17-3.61Q720.22 0.66 714.89 0.66ZM766.06-23.87L766.06-23.87L766.06-23.87Q765.04-23.87 765.66-25.33L765.66-25.33L765.66-25.33Q766.28-26.79 766.28-28.25L766.28-28.25L766.28-28.25Q766.28-29.71 764.93-30.66L764.93-30.66L764.93-30.66Q763.58-31.61 761.86-31.61L761.86-31.61L761.86-31.61Q760.15-31.61 758.25-31.17L758.25-31.17L758.25-31.17Q757.16-29.35 757.16-27.34L757.16-27.34L757.16-27.34Q757.16-25.33 759.02-23.18L759.02-23.18L759.02-23.18Q760.88-21.02 763.11-19.53L763.11-19.53L763.11-19.53Q765.33-18.03 767.19-15.95L767.19-15.95L767.19-15.95Q769.06-13.87 769.06-11.83L769.06-11.83L769.06-11.83Q769.06-5.99 764.09-2.66L764.09-2.66L764.09-2.66Q759.13 0.66 753.32 0.66L753.32 0.66L753.32 0.66Q747.52 0.66 744.24-1.97L744.24-1.97L744.24-1.97Q740.95-4.60 740.95-7.48L740.95-7.48L740.95-7.48Q740.95-10.37 742.96-12.08L742.96-12.08L742.96-12.08Q744.97-13.80 748.98-13.80L748.98-13.80L748.98-13.80Q749.56-13.80 749.56-13.21L749.56-13.21L749.56-13.21Q749.56-12.99 749.13-11.53L749.13-11.53L749.13-11.53Q748.69-10.07 748.69-8.91L748.69-8.91L748.69-8.91Q748.69-6.42 750.33-5.07L750.33-5.07L750.33-5.07Q751.97-3.72 754.27-3.72L754.27-3.72L754.27-3.72Q756.57-3.72 758.21-5.04L758.21-5.04L758.21-5.04Q759.86-6.35 759.86-8.29L759.86-8.29L759.86-8.29Q759.86-10.22 758.73-11.50L758.73-11.50L758.73-11.50Q757.59-12.77 755.95-13.91L755.95-13.91L755.95-13.91Q754.31-15.04 752.63-16.35L752.63-16.35L752.63-16.35Q748.76-19.34 748.76-24.02L748.76-24.02L748.76-24.02Q748.76-29.86 753.65-33.25L753.65-33.25L753.65-33.25Q758.54-36.65 764.82-36.65L764.82-36.65L764.82-36.65Q768.84-36.65 771.32-35.11L771.32-35.11L771.32-35.11Q773.80-33.58 773.80-30.66L773.80-30.66L773.80-30.66Q773.80-28.76 773.00-27.38L773.00-27.38L773.00-27.38Q772.19-25.99 771.17-25.33L771.17-25.33L771.17-25.33Q770.15-24.67 768.84-24.31L768.84-24.31L768.84-24.31Q767.23-23.87 766.06-23.87ZM807.16 5.91L807.16 5.91L807.16 6.35L807.16 6.35Q826.36 10.88 835.34 10.88L835.34 10.88L835.34 10.88Q838.04 10.88 839.54 9.78L839.54 9.78L839.54 9.78Q841.03 8.69 842.93 5.77L842.93 5.77L842.93 5.77Q843.08 5.69 843.22 5.69L843.22 5.69L843.22 5.69Q843.22 5.69 843.59 5.69L843.59 5.69L843.59 5.69Q844.54 5.69 845.27 6.13L845.27 6.13L845.27 6.13Q845.27 12.41 842.35 16.43L842.35 16.43L842.35 16.43Q839.43 20.44 834.35 20.44L834.35 20.44L834.35 20.44Q829.28 20.44 821.87 18.07L821.87 18.07L821.87 18.07Q814.46 15.69 807.67 12.99L807.67 12.99L807.67 12.99Q800.88 10.29 798.99 9.93L798.99 9.93L798.99 9.93Q796.07 11.10 794.86 11.10L794.86 11.10L794.86 11.10Q793.66 11.10 792.85 10.37L792.85 10.37L792.85 10.37Q792.05 9.64 792.05 8.03L792.05 8.03L792.05 8.03Q792.05 6.42 793.44 4.67L793.44 4.67L793.44 4.67Q794.82 2.92 796.94 2.92L796.94 2.92L796.94 2.92Q798.33 2.92 800.96 3.58L800.96 3.58L801.83 3.80L801.83 3.80Q817.82-2.04 825.48-12.12L825.48-12.12L825.48-12.12Q828.40-15.84 830.23-20.99L830.23-20.99L830.23-20.99Q832.05-26.13 832.05-31.75L832.05-31.75L832.05-31.75Q832.05-37.38 829.17-39.93L829.17-39.93L829.17-39.93Q826.29-42.49 821.62-42.49L821.62-42.49L821.62-42.49Q816.51-39.86 812.67-32.52L812.67-32.52L812.67-32.52Q808.84-25.18 808.84-18.40L808.84-18.40L808.84-18.40Q808.84-15.11 810.04-13.83L810.04-13.83L810.04-13.83Q811.25-12.56 812.60-12.56L812.60-12.56L812.60-12.56Q813.95-12.56 815.59-13.58L815.59-13.58L815.59-13.58Q817.24-14.60 818.11-15.55L818.11-15.55L818.11-15.55Q820.01-14.89 820.30-13.07L820.30-13.07L820.30-13.07Q817.02-8.76 811.61-6.86L811.61-6.86L811.61-6.86Q809.42-6.06 807.23-6.06L807.23-6.06L807.23-6.06Q803.22-6.06 800.41-8.50L800.41-8.50L800.41-8.50Q797.60-10.95 797.60-16.02L797.60-16.02L797.60-16.02Q797.60-21.10 800.48-27.01L800.48-27.01L800.48-27.01Q803.37-32.92 807.93-37.56L807.93-37.56L807.93-37.56Q812.49-42.19 818.51-45.19L818.51-45.19L818.51-45.19Q824.54-48.18 830.30-48.18L830.30-48.18L830.30-48.18Q836.07-48.18 839.72-44.75L839.72-44.75L839.72-44.75Q843.37-41.32 843.37-35.19L843.37-35.19L843.37-35.19Q843.37-29.05 841.00-23.32L841.00-23.32L841.00-23.32Q838.62-17.59 834.83-13.10L834.83-13.10L834.83-13.10Q831.03-8.61 826.14-4.75L826.14-4.75L826.14-4.75Q817.38 2.19 807.16 5.91ZM871.62-28.62L871.62-28.62L871.62-28.62Q870.89-29.78 869.65-30.51L869.65-30.51L869.65-30.51Q868.41-31.24 867.61-31.39L867.61-31.39L866.73-31.54L866.73-31.54Q861.47-28.32 857.06-21.35L857.06-21.35L857.06-21.35Q852.64-14.38 852.64-8.61L852.64-8.61L852.64-8.61Q852.64-7.37 853.26-6.68L853.26-6.68L853.26-6.68Q853.88-5.99 854.68-5.99L854.68-5.99L854.68-5.99Q856.80-5.99 859.43-7.88L859.43-7.88L859.43-7.88Q862.06-9.78 863.66-11.68L863.66-11.68L865.27-13.58L865.27-13.58Q867.09-20.29 871.62-28.62ZM864.61-8.54L864.61-8.54L864.61-8.54Q864.54-8.47 863.59-7.37L863.59-7.37L863.59-7.37Q862.64-6.28 861.36-5.00L861.36-5.00L861.36-5.00Q860.09-3.72 858.41-2.34L858.41-2.34L858.41-2.34Q854.54 0.73 850.82 0.73L850.82 0.73L850.82 0.73Q847.09 0.73 845.23-1.53L845.23-1.53L845.23-1.53Q843.37-3.80 843.37-8.25L843.37-8.25L843.37-8.25Q843.37-12.70 847.02-19.42L847.02-19.42L847.02-19.42Q850.67-26.13 856.29-31.10L856.29-31.10L856.29-31.10Q861.91-36.06 866.80-36.06L866.80-36.06L866.80-36.06Q868.99-36.06 870.93-34.97L870.93-34.97L870.93-34.97Q872.86-33.87 873.74-32.41L873.74-32.41L873.74-32.41Q878.34-39.64 881.33-39.64L881.33-39.64L881.33-39.64Q882.79-39.64 883.81-38.07L883.81-38.07L883.81-38.07Q884.83-36.50 884.83-34.42L884.83-34.42L884.83-34.42Q884.83-32.34 881.55-26.83L881.55-26.83L881.55-26.83Q878.26-21.32 873.45-15.48L873.45-15.48L873.45-15.48Q872.86-13.07 872.86-9.27L872.86-9.27L872.86-9.27Q872.86-4.16 875.64-4.16L875.64-4.16L875.64-4.16Q877.46-4.16 880.31-5.91L880.31-5.91L881.26-6.50L881.26-6.50Q881.48-6.50 882.02-5.62L882.02-5.62L882.02-5.62Q882.57-4.75 882.57-4.27L882.57-4.27L882.57-4.27Q882.57-3.80 881.11-2.63L881.11-2.63L881.11-2.63Q879.65-1.46 876.91-0.33L876.91-0.33L876.91-0.33Q874.18 0.80 871.40 0.80L871.40 0.80L871.40 0.80Q864.61 0.80 864.61-8.54ZM910.09-4.16L910.09-4.16L910.09-4.16Q907.90-1.90 904.29-0.44L904.29-0.44L904.29-0.44Q900.67 1.02 897.21 1.02L897.21 1.02L897.21 1.02Q893.74 1.02 891.51-0.80L891.51-0.80L891.51-0.80Q889.29-2.63 889.29-6.17L889.29-6.17L889.29-6.17Q889.29-9.71 891.62-15.95L891.62-15.95L891.62-15.95Q893.96-22.19 897.46-28.91L897.46-28.91L897.46-28.91Q895.86-29.27 894.47-29.27L894.47-29.27L894.47-29.27Q891.70-29.27 890.45-27.59L890.45-27.59L890.45-27.59Q888.85-29.27 888.85-31.10L888.85-31.10L888.85-31.10Q888.85-32.92 890.82-34.16L890.82-34.16L890.82-34.16Q892.79-35.41 895.56-35.41L895.56-35.41L895.56-35.41Q898.34-35.41 900.16-35.04L900.16-35.04L900.16-35.04Q902.06-38.98 902.43-44.02L902.43-44.02L902.43-44.02Q904.98-46.50 909.95-46.50L909.95-46.50L909.95-46.50Q911.26-46.50 912.03-45.73L912.03-45.73L912.03-45.73Q912.79-44.97 912.79-43.65L912.79-43.65L912.79-43.65Q912.79-40.08 907.76-33.80L907.76-33.80L907.76-33.80Q909.87-33.29 912.61-33.29L912.61-33.29L912.61-33.29Q915.35-33.29 918.12-34.31L918.12-34.31L918.12-34.31Q918.34-33.21 918.34-32.19L918.34-32.19L918.34-32.19Q918.34-26.06 910.60-26.06L910.60-26.06L910.60-26.06Q907.39-26.06 904.47-27.23L904.47-27.23L904.47-27.23Q899.29-13.43 899.29-7.96L899.29-7.96L899.29-7.96Q899.29-5.04 902.57-5.04L902.57-5.04L902.57-5.04Q904.25-5.04 906.11-5.73L906.11-5.73L906.11-5.73Q907.97-6.42 908.78-7.23L908.78-7.23L908.78-7.23Q910.24-6.72 910.24-5.18L910.24-5.18L910.24-5.18Q910.24-4.75 910.09-4.16ZM945.13-28.62L945.13-28.62L945.13-28.62Q944.40-29.78 943.16-30.51L943.16-30.51L943.16-30.51Q941.92-31.24 941.12-31.39L941.12-31.39L940.24-31.54L940.24-31.54Q934.98-28.32 930.57-21.35L930.57-21.35L930.57-21.35Q926.15-14.38 926.15-8.61L926.15-8.61L926.15-8.61Q926.15-7.37 926.77-6.68L926.77-6.68L926.77-6.68Q927.39-5.99 928.20-5.99L928.20-5.99L928.20-5.99Q930.31-5.99 932.94-7.88L932.94-7.88L932.94-7.88Q935.57-9.78 937.17-11.68L937.17-11.68L938.78-13.58L938.78-13.58Q940.61-20.29 945.13-28.62ZM938.12-8.54L938.12-8.54L938.12-8.54Q938.05-8.47 937.10-7.37L937.10-7.37L937.10-7.37Q936.15-6.28 934.87-5.00L934.87-5.00L934.87-5.00Q933.60-3.72 931.92-2.34L931.92-2.34L931.92-2.34Q928.05 0.73 924.33 0.73L924.33 0.73L924.33 0.73Q920.60 0.73 918.74-1.53L918.74-1.53L918.74-1.53Q916.88-3.80 916.88-8.25L916.88-8.25L916.88-8.25Q916.88-12.70 920.53-19.42L920.53-19.42L920.53-19.42Q924.18-26.13 929.80-31.10L929.80-31.10L929.80-31.10Q935.42-36.06 940.31-36.06L940.31-36.06L940.31-36.06Q942.50-36.06 944.44-34.97L944.44-34.97L944.44-34.97Q946.37-33.87 947.25-32.41L947.25-32.41L947.25-32.41Q951.85-39.64 954.84-39.64L954.84-39.64L954.84-39.64Q956.30-39.64 957.32-38.07L957.32-38.07L957.32-38.07Q958.34-36.50 958.34-34.42L958.34-34.42L958.34-34.42Q958.34-32.34 955.06-26.83L955.06-26.83L955.06-26.83Q951.77-21.32 946.96-15.48L946.96-15.48L946.96-15.48Q946.37-13.07 946.37-9.27L946.37-9.27L946.37-9.27Q946.37-4.16 949.15-4.16L949.15-4.16L949.15-4.16Q950.97-4.16 953.82-5.91L953.82-5.91L954.77-6.50L954.77-6.50Q954.99-6.50 955.53-5.62L955.53-5.62L955.53-5.62Q956.08-4.75 956.08-4.27L956.08-4.27L956.08-4.27Q956.08-3.80 954.62-2.63L954.62-2.63L954.62-2.63Q953.16-1.46 950.42-0.33L950.42-0.33L950.42-0.33Q947.69 0.80 944.91 0.80L944.91 0.80L944.91 0.80Q938.12 0.80 938.12-8.54ZM984.84-29.27L984.84-29.27L984.84-29.27Q983.82-28.76 980.68-24.42L980.68-24.42L980.68-24.42Q977.54-20.07 975.86-16.94L975.86-16.94L975.86-16.94Q974.19-9.64 971.23-4.53L971.23-4.53L971.23-4.53Q968.27 0.58 966.41 0.58L966.41 0.58L966.41 0.58Q964.55 0.58 962.54-0.11L962.54-0.11L962.54-0.11Q960.53-0.80 960.53-2.19L960.53-2.19L960.53-2.19Q960.53-4.67 962.47-8.47L962.47-8.47L962.47-8.47Q964.40-12.26 966.37-14.82L966.37-14.82L968.27-17.37L968.27-17.37Q969.73-22.34 969.73-28.25L969.73-28.25L969.73-28.25Q969.73-30.88 968.64-30.88L968.64-30.88L968.64-30.88Q967.83-30.88 966.67-30.26L966.67-30.26L966.67-30.26Q965.50-29.64 965.13-29.64L965.13-29.64L965.13-29.64Q964.77-29.64 964.33-30.51L964.33-30.51L964.33-30.51Q963.89-31.39 963.89-31.86L963.89-31.86L963.89-31.86Q963.89-32.34 965.53-33.47L965.53-33.47L965.53-33.47Q967.18-34.60 969.95-35.70L969.95-35.70L969.95-35.70Q972.73-36.79 975.13-36.79L975.13-36.79L975.13-36.79Q976.23-36.79 977.00-34.75L977.00-34.75L977.00-34.75Q977.76-32.70 977.76-30.40L977.76-30.40L977.76-30.40Q977.76-28.10 977.69-26.97L977.69-26.97L977.69-26.97Q977.62-25.84 977.62-25.40L977.62-25.40L977.62-25.40Q980.32-30.15 983.78-33.43L983.78-33.43L983.78-33.43Q987.25-36.72 990.39-36.72L990.39-36.72L990.39-36.72Q993.53-36.72 995.10-35.04L995.10-35.04L995.10-35.04Q996.67-33.36 996.67-30.37L996.67-30.37L996.67-30.37Q996.67-26.28 992.58-22.34L992.58-22.34L992.58-22.34Q988.49-18.40 985.50-18.40L985.50-18.40L985.50-18.40Q984.04-18.40 984.04-19.34L984.04-19.34L984.04-19.34Q984.04-19.56 985.17-21.90L985.17-21.90L985.17-21.90Q986.30-24.24 986.30-26.75L986.30-26.75L986.30-26.75Q986.30-29.27 984.84-29.27Z"></path></g></g><style>text {
  font-size: 64px;
  font-family: Arial Black;
  dominant-baseline: central;
  text-anchor: middle;
}</style></svg>